<svg width="256" height="256" viewBox="0 0 64 64" fill="none" xmlns="http://www.w3.org/2000/svg">
    <!-- Rounded background -->
    <defs>
      <linearGradient id="estatehub-bg" x1="8" y1="8" x2="56" y2="56" gradientUnits="userSpaceOnUse">
        <stop offset="0" stop-color="#2563EB"/>
        <stop offset="1" stop-color="#22C55E"/>
      </linearGradient>
    </defs>
  
    <rect x="6" y="6" width="52" height="52" rx="14" fill="url(#estatehub-bg)"/>
  
    <!-- House outline -->
    <path
      d="M16 30L32 16L48 30V48H16V30Z"
      stroke="white"
      stroke-width="2.6"
      stroke-linejoin="round"
      fill="none"
    />
  
    <!-- Location pin as the “hub” inside the house -->
    <path
      d="M32 28C27.9 28 24.6 31.3 24.6 35.4C24.6 40.1 28.3 44.1 31.1 46.5C31.5 46.8 31.7 47 32 47C32.3 47 32.5 46.8 32.9 46.5C35.7 44.1 39.4 40.1 39.4 35.4C39.4 31.3 36.1 28 32 28Z"
      fill="white"
      opacity="0.94"
    />
    <circle cx="32" cy="35.4" r="3" fill="#22C55E"/>
  </svg>
  